<svg xmlns="http://www.w3.org/2000/svg" viewBox="0 0 32 32" id="Bullseye--Streamline-Twemoji" height="32" width="32">
  <desc>
    Bullseye Streamline Emoji: https://streamlinehq.com
  </desc>
  <path fill="#dd2e44" d="M0 16a16 16 0 1 0 32 0 16 16 0 1 0 -32 0" stroke-width="0.8889"></path>
  <path fill="#ffffff" d="M4 16a12 12 0 1 0 24 0 12 12 0 1 0 -24 0" stroke-width="0.8889"></path>
  <path fill="#dd2e44" d="M7.111111111111111 16a8.88888888888889 8.88888888888889 0 1 0 17.77777777777778 0 8.88888888888889 8.88888888888889 0 1 0 -17.77777777777778 0" stroke-width="0.8889"></path>
  <path fill="#ffffff" d="M10.666666666666666 16a5.333333333333333 5.333333333333333 0 1 0 10.666666666666666 0 5.333333333333333 5.333333333333333 0 1 0 -10.666666666666666 0" stroke-width="0.8889"></path>
  <path fill="#dd2e44" d="M13.333333333333332 16a2.6666666666666665 2.6666666666666665 0 1 0 5.333333333333333 0 2.6666666666666665 2.6666666666666665 0 1 0 -5.333333333333333 0" stroke-width="0.8889"></path>
  <path opacity=".2" d="m16.21333333333333 16.250666666666667 11.683555555555555 10.447999999999999s-2.3528888888888884 3.0008888888888885 -7.013333333333333 4.541333333333333L15.625777777777778 16.373333333333335l0.5875555555555555 -0.12266666666666667z" stroke-width="0.8889"></path>
  <path fill="#ffac33" d="M16.261333333333333 16.88888888888889c-0.22666666666666666 0 -0.4524444444444444 -0.08622222222222221 -0.6257777777777777 -0.25955555555555554 -0.3457777777777778 -0.3457777777777778 -0.3457777777777778 -0.9048888888888889 0 -1.2506666666666666l0.5004444444444444 -0.5004444444444444c0.3457777777777778 -0.3457777777777778 0.9048888888888889 -0.3457777777777778 1.2515555555555553 0 0.34488888888888886 0.3457777777777778 0.34488888888888886 0.9048888888888889 0 1.2506666666666666l-0.5013333333333333 0.5004444444444444c-0.17244444444444443 0.17333333333333334 -0.3982222222222222 0.25955555555555554 -0.6248888888888888 0.25955555555555554z" stroke-width="0.8889"></path>
  <path fill="#55acee" d="M21.34755555555555 6.205333333333333c-0.3582222222222222 1.848 0 4.169777777777777 0 4.169777777777777l6.270222222222222 -6.56711111111111c0.25866666666666666 -1.2924444444444443 -0.4693333333333333 -3.495111111111111 -1.527111111111111 -3.7671111111111113 -1.0577777777777777 -0.27199999999999996 -3.6257777777777775 0.7137777777777777 -4.743111111111111 6.1644444444444435zm4.447111111111111 4.447111111111111c-1.848 0.3582222222222222 -4.169777777777777 0 -4.169777777777777 0l6.56711111111111 -6.270222222222222c1.2924444444444443 -0.25866666666666666 3.495111111111111 0.4693333333333333 3.7671111111111113 1.527111111111111 0.27199999999999996 1.0577777777777777 -0.7137777777777777 3.6257777777777775 -6.1644444444444435 4.743111111111111z" stroke-width="0.8889"></path>
  <path fill="#3a87c2" d="M29.153777777777776 3.986666666666667 18.823111111111107 15.632888888888887c-0.3217777777777778 0.3217777777777778 -1.487111111111111 0.7839999999999999 -2.231111111111111 0.040888888888888884 -0.7431111111111111 -0.7431111111111111 -0.3724444444444444 -1.8488888888888888 -0.050666666666666665 -2.1715555555555555L28.28 3.1119999999999997s0.6008888888888889 -0.5644444444444444 1.0302222222222222 -0.1351111111111111 -0.1564444444444444 1.0097777777777777 -0.1564444444444444 1.0097777777777777z" stroke-width="0.8889"></path>
</svg>